<?xml version="1.0" encoding="UTF-8" standalone="no"?>
<!-- Created with Inkscape (http://www.inkscape.org/) -->

<svg
   xmlns:dc="http://purl.org/dc/elements/1.1/"
   xmlns:cc="http://creativecommons.org/ns#"
   xmlns:rdf="http://www.w3.org/1999/02/22-rdf-syntax-ns#"
   xmlns:svg="http://www.w3.org/2000/svg"
   xmlns="http://www.w3.org/2000/svg"
   xmlns:sodipodi="http://sodipodi.sourceforge.net/DTD/sodipodi-0.dtd"
   xmlns:inkscape="http://www.inkscape.org/namespaces/inkscape"
   width="204"
   height="282"
   id="svg3186"
   version="1.1"
   inkscape:version="0.48.4 r9939"
   sodipodi:docname="Hacklab_logo_fixed.svg">
  <defs
     id="defs3188" />
  <sodipodi:namedview
     id="base"
     pagecolor="#ffffff"
     bordercolor="#666666"
     borderopacity="1.0"
     inkscape:pageopacity="0.0"
     inkscape:pageshadow="2"
     inkscape:zoom="0.90509668"
     inkscape:cx="-32.040795"
     inkscape:cy="90.552204"
     inkscape:document-units="px"
     inkscape:current-layer="layer1"
     showgrid="false"
     inkscape:window-width="1364"
     inkscape:window-height="373"
     inkscape:window-x="0"
     inkscape:window-y="17"
     inkscape:window-maximized="0"
     units="px" />
  <metadata
     id="metadata3191">
    <rdf:RDF>
      <cc:Work
         rdf:about="">
        <dc:format>image/svg+xml</dc:format>
        <dc:type
           rdf:resource="http://purl.org/dc/dcmitype/StillImage" />
      </cc:Work>
    </rdf:RDF>
  </metadata>
  <g
     inkscape:label="Layer 1"
     inkscape:groupmode="layer"
     id="layer1"
     transform="translate(0,-770.36229)">
    <g
       id="g3050"
       transform="matrix(0.99994198,0,0,0.99994198,0.0022123,770.39089)" />
    <g
       id="g3054"
       transform="matrix(0.99994198,0,0,0.99994198,0.0022123,770.39089)" />
    <g
       id="g3060"
       transform="matrix(0.99994198,0,0,0.99994198,0.0022123,770.39089)" />
    <g
       id="g3064"
       transform="matrix(0.99994198,0,0,0.99994198,0.0022123,770.39089)" />
    <g
       id="g3068"
       transform="matrix(0.99994198,0,0,0.99994198,0.0022123,770.39089)" />
    <g
       id="g3072"
       transform="matrix(0.99994198,0,0,0.99994198,0.0022123,770.39089)" />
    <g
       id="g3076"
       transform="matrix(0.99994198,0,0,0.99994198,0.0022123,770.39089)" />
    <g
       id="g3080"
       transform="matrix(0.99994198,0,0,0.99994198,0.0022123,770.39089)"
       style="fill:#000000;fill-opacity:1;stroke:none">
      <path
         id="rect3082"
         transform="matrix(1.0617106,0,0,1.0617106,-2.0015865,-829.1304)"
         d="m 79.90625,986.25 0,17.125 3.46875,0 0,-7.0625 61.21875,0 0,7.8125 -11.09375,0 0,2.8438 25.28125,0 0,-2.8438 -11.34375,0 c 0,-3.484 0,-7.32497 0,-10.625 l -64.0625,0 0,-7.25 z"
         inkscape:connector-curvature="0"
         sodipodi:nodetypes="ccccccccccccccc"
         style="fill:#000000;fill-opacity:1;stroke:none" />
    </g>
    <g
       id="g3084"
       transform="matrix(0.99994198,0,0,0.99994198,0.0022123,770.39089)" />
    <path
       style="fill:#000000;fill-opacity:1;stroke:none"
       d="m 144.07686,1013.2047 18.16095,0 0,3.0099 -18.16095,0 z"
       id="rect3090"
       inkscape:connector-curvature="0" />
    <g
       id="g3092"
       transform="matrix(0.99994198,0,0,0.99994198,0.0022123,770.39089)"
       style="fill:#000000;fill-opacity:1;stroke:none">
      <path
         style="fill:#000000;fill-opacity:1;stroke:none"
         d="m 147.687,248.701 10.955,0 0,3.008 -10.955,0 z"
         id="rect3094"
         inkscape:connector-curvature="0" />
    </g>
    <path
       d="m 77.132742,901.84028 v 15.74107 h -5.614674 v -37.17384 h 5.614674 v 15.79308 h 6.741611 v -15.79308 h 5.613674 v 37.17384 h -5.613674 v -15.74107 h -6.741611 z"
       id="path3096"
       inkscape:connector-curvature="0"
       style="fill:#30a7df;fill-opacity:1;stroke:none" />
    <path
       d="m 99.355455,909.04485 -1.370918,8.5375 h -5.85166 l 6.315633,-37.17383 h 7.71356 l 6.22863,37.17383 h -5.90166 l -1.30092,-8.5375 h -5.832665 z m 2.918825,-20.11582 -2.07487,14.65514 h 4.15076 l -2.07588,-14.65514 z"
       id="path3098"
       inkscape:connector-curvature="0"
       style="fill:#30a7df;fill-opacity:1;stroke:none" />
    <path
       d="m 122.17614,918.06834 c -2.47085,0 -4.56875,-0.86395 -6.30163,-2.59686 -1.7299,-1.7289 -2.59785,-3.82178 -2.59785,-6.27565 V 888.9 c 0,-2.47185 0.87095,-4.57573 2.61284,-6.30561 1.73791,-1.72993 3.83278,-2.59585 6.28564,-2.59585 2.47086,0 4.56773,0.87093 6.28863,2.61084 1.71888,1.74089 2.57985,3.83778 2.57985,6.29062 v 4.24277 h -5.81966 v -4.36674 c 0,-0.89098 -0.31598,-1.65492 -0.94895,-2.28689 -0.63097,-0.63496 -1.3949,-0.95294 -2.28286,-0.95294 -0.89094,0 -1.6449,0.31698 -2.26987,0.95294 -0.61996,0.63197 -0.93295,1.39493 -0.93295,2.28588 v 20.37084 c 0,0.89193 0.31299,1.64888 0.93295,2.27186 0.62497,0.62295 1.37893,0.9349 2.26987,0.9349 0.88895,0 1.65189,-0.31195 2.28286,-0.93691 0.63297,-0.62397 0.94895,-1.38394 0.94895,-2.27385 v -5.14471 h 5.81966 v 5.19566 c 0,2.47489 -0.87093,4.57174 -2.60884,6.29467 -1.74089,1.71989 -3.8268,2.58086 -6.25864,2.58086 z"
       id="path3100"
       inkscape:connector-curvature="0"
       style="fill:#30a7df;fill-opacity:1;stroke:none" />
    <path
       d="m 139.39412,905.83504 v 11.74731 h -5.61464 v -37.19983 h 5.61464 v 13.26423 l 6.84163,-13.26423 h 6.00163 l -7.69854,15.20308 8.98751,21.99777 h -6.57564 l -5.87265,-15.06615 -1.68393,3.31782 z"
       id="path3102"
       inkscape:connector-curvature="0"
       style="fill:#30a7df;fill-opacity:1;stroke:none" />
    <path
       d="M 110.07684,957.61009 H 94.79972 v -37.17292 h 5.61567 v 31.58418 h 9.66045 v 5.58874 z"
       id="path3104"
       inkscape:connector-curvature="0"
       style="fill:#30a7df;fill-opacity:1;stroke:none" />
    <path
       d="m 119.04433,949.07354 -1.37292,8.53655 h -5.85367 l 6.31964,-37.17292 h 7.70956 l 6.2316,37.17292 h -5.90162 l -1.30294,-8.53655 h -5.82965 z m 2.91881,-20.11484 -2.07587,14.65415 h 4.15176 l -2.07589,-14.65415 z"
       id="path3106"
       inkscape:connector-curvature="0"
       style="fill:#30a7df;fill-opacity:1;stroke:none" />
    <path
       d="m 133.95647,957.61009 v -37.19893 h 8.39249 c 2.21487,0 4.20876,0.583 5.98766,1.74992 1.52291,0.98895 2.61084,2.52088 3.2618,4.59774 0.357,1.10794 0.53497,2.42387 0.53497,3.94475 0,2.4919 -0.65994,4.48978 -1.98388,5.99367 -0.55299,0.63299 -1.20493,1.11692 -1.9549,1.45192 1.24594,0.475 2.30286,1.41492 3.17183,2.81784 0.57595,0.95095 0.99995,2.17587 1.27893,3.67879 0.13698,0.77097 0.20499,1.63092 0.20499,2.58184 0,2.35387 -0.44297,4.34978 -1.33392,5.99166 -0.69095,1.28694 -1.66991,2.31286 -2.93785,3.08481 -1.42192,0.87004 -2.83781,1.30488 -4.24174,1.30488 h -10.38038 z m 6.05063,-21.99678 h 2.33788 c 1.73189,0 2.89783,-0.85095 3.48977,-2.55684 0.21699,-0.63298 0.32401,-1.41594 0.32401,-2.34687 0,-1.54591 -0.37497,-2.71583 -1.12094,-3.50779 -0.69297,-0.73296 -1.5919,-1.09896 -2.69283,-1.09896 h -2.33788 v 9.51046 z m 0,16.45805 h 2.34186 c 1.89588,0 3.20681,-0.97994 3.93877,-2.93783 0.256,-0.67195 0.38498,-1.4429 0.38498,-2.31487 0,-2.07686 -0.39497,-3.58977 -1.18395,-4.54073 -0.71293,-0.87197 -1.75988,-1.30591 -3.1408,-1.30591 h -2.34184 v 11.09934 z"
       id="path3108"
       inkscape:connector-curvature="0"
       style="fill:#30a7df;fill-opacity:1;stroke:none" />
    <path
       d="m 122.07514,984.09842 h 4.21877 v 4.2191 h -4.21877 v -4.2191 z"
       id="path3110"
       inkscape:connector-curvature="0"
       style="fill:#000000;fill-opacity:1;stroke:none" />
    <path
       d="m 129.5817,964.58659 h -4.48771 v -4.2177 h 13.15721 v 4.2177 h -4.45074 v 23.70963 h -4.21876 v -23.70963 z"
       id="path3112"
       inkscape:connector-curvature="0"
       style="fill:#000000;fill-opacity:1;stroke:none" />
    <path
       d="m 146.16474,960.02197 c 1.8549,0 3.43582,0.65291 4.73574,1.95887 1.29892,1.30692 1.94889,2.88175 1.94889,4.7227 v 15.23638 c 0,1.8568 -0.65397,3.4357 -1.96088,4.7357 -1.30893,1.2984 -2.88084,1.9467 -4.72477,1.9467 -1.85685,0 -3.43178,-0.6504 -4.72469,-1.9588 -1.29094,-1.3069 -1.93789,-2.881 -1.93789,-4.7245 v -15.23654 c 0,-1.85482 0.65397,-3.43579 1.95888,-4.73269 1.31094,-1.29796 2.87884,-1.94782 4.70472,-1.94782 z m 2.29289,6.60459 c 0,-0.66797 -0.23001,-1.23598 -0.69896,-1.70589 -0.471,-0.466 -1.03895,-0.69995 -1.70492,-0.69995 -0.66997,0 -1.23991,0.23297 -1.7169,0.69995 -0.47699,0.46991 -0.71295,1.03792 -0.71295,1.70589 v 15.27896 c 0,0.666 0.23596,1.2362 0.71295,1.7028 0.47699,0.467 1.04693,0.701 1.7169,0.701 0.66597,0 1.23392,-0.234 1.70492,-0.701 0.46895,-0.4666 0.69896,-1.0368 0.69896,-1.7028 v -15.27896 z"
       id="path3114"
       inkscape:connector-curvature="0"
       style="fill:#000000;fill-opacity:1;stroke:none" />
    <g
       id="g3116"
       transform="matrix(0.99994198,0,0,0.99994198,0.0022123,770.39089)" />
    <path
       d="M 69.891163,977.39582"
       id="path3120"
       inkscape:connector-curvature="0"
       style="fill:none;stroke:#000000;stroke-width:0.09999423;stroke-opacity:1" />
    <path
       d="M 66.31637,923.31402"
       id="path3122"
       inkscape:connector-curvature="0"
       style="fill:none;stroke:#000000;stroke-width:0.09999423;stroke-opacity:1" />
    <path
       d="M 56.11096,923.03704"
       id="path3124"
       inkscape:connector-curvature="0"
       style="fill:none;stroke:#000000;stroke-width:0.09999423;stroke-opacity:1" />
    <path
       d="M 52.536164,977.11692"
       id="path3126"
       inkscape:connector-curvature="0"
       style="fill:none;stroke:#000000;stroke-width:0.09999423;stroke-opacity:1" />
    <path
       style="fill:#000000;fill-opacity:1;stroke:none"
       d="m 60.90345,796.36729 0,19.9059 -0.398118,0 c 0,5.4597 -0.0049,10.8874 0.03321,16.35603 l -0.66353,0 0,0.79624 c -0.637965,0.32304 -1.06165,0.84466 -1.06165,1.42661 0,0.76896 0.718239,1.38567 1.72518,1.62566 0.0126,6.24324 -0.02507,12.50751 -0.132707,18.7779 l -0.763058,0 c -0.012,0.86397 0.06443,1.80748 -0.09953,2.52141 -0.405975,0.32401 -0.558429,0.65425 -0.829413,0.79624 0.005,0.78195 0.003,1.47401 0,2.05698 0,0.0473 0.22542,0.22973 0.265412,0.33174 0.100985,0.259 0.03319,0.91801 0.03319,2.05694 -1.255929,0.20802 -2.757649,0.10488 -3.682597,0.72991 -0.09699,0.40996 -0.07243,0.758 -0.06634,1.12801 0.0061,0.37594 0.167696,0.7968 0.132705,1.0948 -0.04097,0.32599 -0.558249,0.85417 -0.796234,1.1612 -0.520972,0.67596 -0.972045,1.0615 -1.692003,1.59245 0.05502,0.508 0.210407,0.84627 0.265411,1.36023 0.06199,0.59098 -0.171991,1.33483 0,2.02377 0.175991,0.70796 1.515589,0.97888 1.426592,1.65885 -0.05101,0.38497 -0.997835,0.7096 -1.094826,1.42658 -0.09699,0.71196 0.0353,1.26468 0.431295,1.62565 0.551966,0.50592 0.90087,0.44018 1.658825,0.59718 l 3.981185,0 0,47.50878 -7.000248,5.24192 c 0,0 8.895478,6.06367 11.711316,7.99552 -2.96483,1.92091 -13.370142,8.65907 -13.370142,8.65907 0,0 10.808288,5.98533 14.299083,7.9292 -3.59079,2.0439 -15.659321,8.92451 -15.659321,8.92451 0,0 13.203711,6.82635 16.820502,8.69225 -2.26602,1.5253 -6.684463,4.5112 -6.734836,4.5451 l -0.06634,0 0,19.1429 -9.55484,0 c -0.595742,-1.9033 -2.34901,-3.2842 -4.445657,-3.2842 -1.250927,0 -2.432705,0.4763 -3.317653,1.3602 -0.885023,0.885 -1.360313,2.0665 -1.360313,3.3171 0,1.25151 0.47529,2.43291 1.360238,3.31778 0.884948,0.8852 2.066726,1.3602 3.317654,1.3602 1.250927,0 2.433704,-0.475 3.317653,-1.3602 0.493897,-0.4934 0.864327,-1.08727 1.094826,-1.72507 l 24.51746,0 0,7.49817 3.649417,0 0,-18.18108 -3.649417,0 0,7.6971 -11.246847,0 0,-17.5504 9.687549,-6.8011 c 0,0 -12.569432,-6.45802 -16.389209,-8.4269 3.671789,-2.09086 15.460265,-8.82495 15.460265,-8.82495 0,0 -11.237869,-6.25734 -14.597675,-8.12826 3.151819,-2.04187 12.872496,-8.3273 12.872496,-8.3273 0,0 -9.283886,-6.37987 -11.97673,-8.22777 1.602717,-1.20576 4.910128,-3.6826 4.910128,-3.6826 0.06799,-16.01179 0.03323,-32.38289 0.03319,-48.63679 l 4.777421,0 c 1.278924,-0.46599 1.864244,-1.63862 0.995295,-2.91955 -0.194987,-0.28997 -0.793412,-0.47105 -0.829412,-0.76304 -0.083,-0.62099 0.738381,-0.42355 1.194354,-1.5925 0.07102,-0.18199 0.07825,-1.93611 0.232237,-2.09012 0.01699,-0.25998 0.07308,-0.28464 0.199059,-1.42658 -0.667962,-0.46196 -1.055326,-0.86815 -1.559297,-1.5261 -0.263987,-0.33799 -0.783412,-0.77823 -0.829415,-1.1612 -0.02402,-0.19098 0.08052,-0.39118 0.09953,-0.59717 0.04098,-0.47197 -0.03101,-0.9985 0,-1.59248 -0.835951,-0.64491 -2.467664,-0.5001 -3.682596,-0.76307 0,-0.69493 -0.02702,-1.399 0,-2.05694 0.112995,-0.10799 0.238583,-0.20394 0.29859,-0.36495 l 0,-2.02377 c -0.36998,-0.19596 -0.582785,-0.54622 -0.895767,-0.79624 -0.166,-0.71493 -0.08653,-1.65744 -0.09953,-2.52141 l -0.464474,0 c -0.13094,-6.26946 -0.233404,-12.5416 -0.26541,-18.81112 0.934945,-0.26796 1.592471,-0.89366 1.592471,-1.62564 0,-0.59093 -0.44386,-1.1046 -1.094823,-1.42655 l 0,-0.7631 -0.530824,0 c -0.01012,-5.45567 -0.0887,-10.87333 -0.132707,-16.35603 l -0.331766,0 0,-19.9059 -1.028472,0 z M 45.575892,995.26102 c 1.201929,0 2.189651,0.986 2.189651,2.1889 0,0.5825 -0.219378,1.11421 -0.630354,1.52631 -0.410976,0.4104 -0.976331,0.6634 -1.559297,0.6634 -0.582967,0 -1.115145,-0.253 -1.526121,-0.6634 -0.410976,-0.4121 -0.630354,-0.94381 -0.630354,-1.52631 0,-0.5815 0.219378,-1.1471 0.630354,-1.5592 0.410976,-0.4114 0.944154,-0.6297 1.526121,-0.6297 z"
       id="path3128"
       inkscape:connector-curvature="0" />
  </g>
</svg>
