<?xml version="1.0" standalone="no"?><!DOCTYPE svg PUBLIC "-//W3C//DTD SVG 1.1//EN" "http://www.w3.org/Graphics/SVG/1.1/DTD/svg11.dtd"><svg width="100%" height="100%" viewBox="0 0 792 612" version="1.1" xmlns="http://www.w3.org/2000/svg" xmlns:xlink="http://www.w3.org/1999/xlink" xml:space="preserve" style="fill-rule:evenodd;clip-rule:evenodd;stroke-linejoin:round;stroke-miterlimit:1.41421;"><g id="bear"><path id="face" d="M396.598,109.536c77.798,0 140.96,62.881 140.96,140.332c0,77.45 -63.162,252.596 -140.96,252.596c-77.797,0 -140.959,-175.146 -140.959,-252.596c0,0 0,0 0,0c0,-77.451 63.162,-140.332 140.959,-140.332Z" style="fill:#000;"/><path id="nose" d="M396.598,362.36c-38.898,0 -70.479,-31.44 -70.479,-70.166c0,-38.725 31.581,-126.298 70.479,-126.298c0,0 0,0 0.001,0c38.898,0 70.479,87.573 70.479,126.298c0,38.726 -31.581,70.166 -70.48,70.166Z" style="fill:#fff;"/><path id="nostrils" d="M395.203,192.385c26.449,0 47.922,21.377 47.922,47.708c0,10.353 -27.582,-8.058 -33.219,-4.901c-8.699,4.873 1.346,27.742 -14.703,27.742c-14.553,0 -2.887,-23.547 -11.679,-26.983c-7.186,-2.809 -36.242,15.984 -36.242,4.142c0,-26.331 21.473,-47.708 47.921,-47.708Z" style="fill:#000;"/><ellipse id="left-eye" cx="343.242" cy="175.479" rx="10.378" ry="10.331" style="fill:#fff;"/><ellipse id="right-eye" cx="455.782" cy="175.479" rx="10.378" ry="10.331" style="fill:#fff;"/><path id="right-ear" d="M509.751,124.346c9.894,-9.869 22.704,-13.136 28.588,-7.29c5.884,5.847 2.628,18.606 -7.266,28.476c-9.893,9.869 -22.703,13.136 -28.587,7.29c-5.884,-5.847 -2.629,-18.606 7.265,-28.476Z" style="fill:#000;"/><path id="left-ear" d="M260.923,147.508c-9.892,-9.868 -13.145,-22.627 -7.26,-28.474c5.885,-5.847 18.694,-2.583 28.586,7.285c9.892,9.868 13.145,22.627 7.26,28.474c-5.885,5.847 -18.694,2.583 -28.586,-7.285Z" style="fill:#000;"/></g></svg>