<?xml version="1.0" standalone="no"?>
<!DOCTYPE svg PUBLIC "-//W3C//DTD SVG 1.1//EN" "http://www.w3.org/Graphics/SVG/1.1/DTD/svg11.dtd">
<svg width="100%" height="100%" viewBox="0 0 128 128" version="1.1" xmlns="http://www.w3.org/2000/svg" xmlns:xlink="http://www.w3.org/1999/xlink" xml:space="preserve" style="fill-rule:evenodd;clip-rule:evenodd;stroke-linecap:round;stroke-miterlimit:1.41421;">
    <g id="polychromatic">
        <g id="mono-lg">
            <path d="M123.657,112.343L102.311,82L73.977,82C74.61,81.162 75,80.131 75,79C75,76.239 72.761,74 70,74C67.239,74 65,76.239 65,79C65,80.131 65.39,81.162 66.023,82L26,82L4.343,112.343C2.895,113.791 2,115.791 2,118C2,120.209 2.895,122.209 4.343,123.657C5.791,125.105 7.791,126 10,126L118,126C120.209,126 122.209,125.105 123.657,123.657C125.105,122.209 126,120.209 126,118C126,115.791 125.105,113.791 123.657,112.343L123.657,112.343ZM61,100C59.343,100 58,98.657 58,97C58,95.343 59.343,94 61,94C62.657,94 64,95.343 64,97C64,98.657 62.657,100 61,100ZM69,112C68.448,112 68,111.552 68,111C68,110.448 68.448,110 69,110C69.552,110 70,110.448 70,111C70,111.552 69.552,112 69,112Z" style="fill:rgb(17,116,189);fill-rule:nonzero;"/>
            <circle cx="60" cy="68" r="2" style="fill:rgb(17,116,189);"/>
            <path d="M95,73L85,73" style="fill:none;stroke-width:2px;stroke:black;"/>
            <path d="M88,63L79,63" style="fill:none;stroke-width:2px;stroke:black;"/>
            <path d="M81,53L73,53" style="fill:none;stroke-width:2px;stroke:black;"/>
            <path d="M81,43L73,43" style="fill:none;stroke-width:2px;stroke:black;"/>
            <path d="M81,33L73,33" style="fill:none;stroke-width:2px;stroke:black;"/>
            <path d="M81,23L73,23" style="fill:none;stroke-width:2px;stroke:black;"/>
            <path d="M81,13L73,13" style="fill:none;stroke-width:2px;stroke:black;"/>
            <path d="M9.994,128L9.871,127.999L9.743,127.997L9.615,127.993L9.487,127.987L9.36,127.98L9.233,127.971L9.106,127.961L8.98,127.949L8.854,127.935L8.729,127.92L8.604,127.903L8.48,127.885L8.356,127.865L8.232,127.844L8.109,127.821L7.987,127.797L7.865,127.771L7.744,127.744L7.623,127.715L7.503,127.685L7.383,127.654L7.264,127.621L7.145,127.586L7.027,127.55L6.91,127.513L6.793,127.474L6.677,127.434L6.562,127.393L6.447,127.35L6.333,127.306L6.22,127.26L6.107,127.214L5.995,127.165L5.884,127.116L5.773,127.065L5.664,127.013L5.555,126.96L5.446,126.905L5.339,126.849L5.232,126.792L5.126,126.734L5.021,126.674L4.917,126.613L4.813,126.551L4.711,126.488L4.609,126.424L4.508,126.358L4.408,126.291L4.308,126.223L4.21,126.154L4.112,126.084L4.016,126.013L3.92,125.94L3.825,125.867L3.731,125.792L3.638,125.716L3.546,125.639L3.455,125.561L3.365,125.482L3.276,125.402L3.188,125.321L3.1,125.239L3.014,125.155L2.929,125.071L2.845,124.986L2.761,124.9L2.679,124.813L2.598,124.724L2.518,124.635L2.439,124.545L2.361,124.454L2.284,124.362L2.208,124.269L2.133,124.175L2.06,124.08L1.987,123.984L1.916,123.888L1.846,123.79L1.777,123.692L1.709,123.592L1.642,123.492L1.576,123.391L1.512,123.289L1.449,123.187L1.387,123.083L1.326,122.979L1.266,122.874L1.208,122.768L1.151,122.661L1.095,122.554L1.04,122.445L0.987,122.336L0.935,122.227L0.884,122.116L0.835,122.005L0.786,121.893L0.74,121.78L0.694,121.667L0.65,121.553L0.607,121.438L0.566,121.323L0.526,121.207L0.487,121.09L0.45,120.973L0.414,120.855L0.379,120.736L0.346,120.617L0.315,120.497L0.285,120.377L0.256,120.256L0.229,120.135L0.203,120.013L0.179,119.891L0.156,119.768L0.135,119.644L0.115,119.52L0.097,119.396L0.08,119.271L0.065,119.146L0.051,119.02L0.039,118.894L0.029,118.767L0.02,118.64L0.013,118.513L0.007,118.385L0.003,118.257L0.001,118.129L0,117.999L0.001,117.866L0.004,117.734L0.009,117.601L0.016,117.47L0.025,117.339L0.036,117.209L0.048,117.08L0.063,116.951L0.079,116.823L0.097,116.696L0.117,116.57L0.139,116.445L0.162,116.321L0.187,116.197L0.214,116.075L0.242,115.953L0.272,115.832L0.303,115.712L0.336,115.593L0.37,115.475L0.405,115.358L0.442,115.242L0.48,115.126L0.52,115.012L0.561,114.899L0.603,114.786L0.646,114.675L0.69,114.564L0.735,114.454L0.782,114.346L0.829,114.238L0.877,114.131L0.927,114.025L0.977,113.92L1.028,113.815L1.08,113.712L1.133,113.609L1.186,113.508L1.24,113.407L1.295,113.307L1.351,113.208L1.407,113.11L1.464,113.012L1.524,112.912L1.638,112.724L1.757,112.536L1.878,112.351L2,112.168L2.124,111.988L2.248,111.811L2.374,111.637L2.501,111.464L2.628,111.294L2.726,111.165L44,52.057L44,0L84,0L84,52.057L125.274,111.165L125.373,111.295L125.5,111.465L125.626,111.637L125.751,111.812L125.876,111.989L126,112.169L126.122,112.351L126.242,112.536L126.361,112.724L126.475,112.912L126.535,113.012L126.592,113.11L126.648,113.208L126.704,113.307L126.759,113.407L126.813,113.508L126.866,113.609L126.919,113.712L126.971,113.815L127.022,113.919L127.073,114.024L127.122,114.13L127.17,114.237L127.218,114.345L127.264,114.454L127.309,114.564L127.354,114.674L127.397,114.785L127.439,114.898L127.479,115.011L127.519,115.126L127.557,115.241L127.594,115.357L127.63,115.474L127.664,115.592L127.696,115.711L127.728,115.831L127.757,115.952L127.786,116.074L127.812,116.197L127.837,116.32L127.861,116.444L127.882,116.57L127.902,116.696L127.921,116.823L127.937,116.951L127.952,117.079L127.964,117.209L127.975,117.339L127.984,117.47L127.991,117.601L127.996,117.733L127.999,117.866L128,117.999L127.999,118.129L127.997,118.257L127.993,118.385L127.987,118.513L127.98,118.64L127.971,118.767L127.961,118.894L127.949,119.02L127.935,119.146L127.92,119.271L127.903,119.396L127.885,119.52L127.865,119.644L127.844,119.768L127.821,119.891L127.797,120.013L127.771,120.135L127.744,120.256L127.715,120.377L127.685,120.497L127.654,120.617L127.621,120.736L127.586,120.855L127.55,120.973L127.513,121.09L127.474,121.207L127.434,121.323L127.393,121.438L127.35,121.553L127.306,121.667L127.26,121.78L127.214,121.893L127.165,122.005L127.116,122.116L127.065,122.227L127.013,122.336L126.96,122.445L126.905,122.554L126.849,122.661L126.792,122.768L126.734,122.874L126.674,122.979L126.613,123.083L126.551,123.187L126.488,123.289L126.424,123.391L126.358,123.492L126.291,123.592L126.223,123.692L126.154,123.79L126.084,123.888L126.013,123.984L125.94,124.08L125.867,124.175L125.792,124.269L125.716,124.362L125.639,124.454L125.561,124.545L125.482,124.635L125.402,124.724L125.321,124.812L125.239,124.9L125.155,124.986L125.071,125.071L124.986,125.155L124.9,125.239L124.812,125.321L124.724,125.402L124.635,125.482L124.545,125.561L124.454,125.639L124.362,125.716L124.269,125.792L124.175,125.867L124.08,125.94L123.984,126.013L123.888,126.084L123.79,126.154L123.692,126.223L123.592,126.291L123.492,126.358L123.391,126.424L123.289,126.488L123.187,126.551L123.083,126.613L122.979,126.674L122.874,126.734L122.768,126.792L122.661,126.849L122.554,126.905L122.445,126.96L122.336,127.013L122.227,127.065L122.116,127.116L122.005,127.165L121.893,127.214L121.78,127.26L121.667,127.306L121.553,127.35L121.438,127.393L121.323,127.434L121.207,127.474L121.09,127.513L120.973,127.55L120.855,127.586L120.736,127.621L120.617,127.654L120.497,127.685L120.377,127.715L120.256,127.744L120.135,127.771L120.013,127.797L119.891,127.821L119.768,127.844L119.644,127.865L119.52,127.885L119.396,127.903L119.271,127.92L119.146,127.935L119.02,127.949L118.894,127.961L118.767,127.971L118.64,127.98L118.513,127.987L118.385,127.993L118.257,127.997L118.129,127.999L118.006,128L9.994,128ZM10.006,124L117.994,124L118.078,123.999L118.156,123.998L118.233,123.996L118.31,123.992L118.387,123.988L118.464,123.982L118.54,123.976L118.616,123.969L118.692,123.961L118.767,123.952L118.842,123.942L118.916,123.931L118.991,123.919L119.064,123.906L119.138,123.893L119.211,123.878L119.284,123.863L119.357,123.846L119.429,123.829L119.501,123.811L119.573,123.792L119.644,123.773L119.715,123.752L119.785,123.731L119.855,123.708L119.925,123.685L119.994,123.661L120.063,123.637L120.132,123.611L120.2,123.585L120.268,123.557L120.335,123.529L120.402,123.501L120.468,123.471L120.534,123.441L120.6,123.41L120.665,123.378L120.73,123.345L120.795,123.311L120.859,123.277L120.922,123.242L120.985,123.206L121.048,123.17L121.11,123.133L121.171,123.095L121.233,123.056L121.293,123.017L121.353,122.977L121.413,122.936L121.472,122.894L121.531,122.852L121.589,122.809L121.646,122.766L121.703,122.721L121.76,122.676L121.816,122.631L121.871,122.585L121.926,122.538L121.98,122.49L122.034,122.442L122.087,122.393L122.139,122.344L122.191,122.293L122.243,122.243L122.293,122.191L122.344,122.139L122.393,122.087L122.442,122.034L122.49,121.98L122.538,121.926L122.585,121.871L122.631,121.816L122.676,121.76L122.721,121.703L122.766,121.646L122.809,121.589L122.852,121.531L122.894,121.472L122.936,121.413L122.977,121.353L123.017,121.293L123.056,121.233L123.095,121.171L123.133,121.11L123.17,121.048L123.206,120.985L123.242,120.922L123.277,120.859L123.311,120.795L123.345,120.73L123.378,120.665L123.41,120.6L123.441,120.534L123.471,120.468L123.501,120.402L123.529,120.335L123.557,120.268L123.585,120.2L123.611,120.132L123.637,120.063L123.661,119.994L123.685,119.925L123.708,119.855L123.731,119.785L123.752,119.715L123.773,119.644L123.792,119.573L123.811,119.501L123.829,119.429L123.846,119.357L123.863,119.284L123.878,119.211L123.893,119.138L123.906,119.064L123.919,118.991L123.931,118.916L123.942,118.842L123.952,118.767L123.961,118.692L123.969,118.616L123.976,118.54L123.982,118.464L123.988,118.387L123.992,118.31L123.996,118.233L123.998,118.156L123.999,118.078L124,118.001L123.999,117.927L123.998,117.855L123.995,117.783L123.991,117.712L123.986,117.641L123.981,117.57L123.974,117.5L123.966,117.431L123.957,117.361L123.947,117.292L123.936,117.223L123.924,117.155L123.911,117.086L123.898,117.018L123.883,116.95L123.867,116.882L123.85,116.814L123.833,116.747L123.814,116.679L123.794,116.611L123.774,116.544L123.752,116.476L123.73,116.409L123.707,116.341L123.682,116.273L123.657,116.206L123.631,116.138L123.604,116.07L123.576,116.003L123.547,115.935L123.517,115.867L123.486,115.799L123.454,115.73L123.422,115.662L123.388,115.594L123.354,115.525L123.319,115.457L123.282,115.388L123.245,115.319L123.207,115.25L123.169,115.181L123.129,115.112L123.089,115.043L123.049,114.977L122.962,114.834L122.874,114.694L122.783,114.554L122.689,114.413L122.592,114.272L122.492,114.131L122.39,113.988L122.285,113.845L122.178,113.702L122.04,113.521L80,53.315L80,4L48,4L48,53.315L5.96,113.521L5.821,113.703L5.714,113.846L5.609,113.989L5.507,114.131L5.407,114.273L5.31,114.414L5.216,114.554L5.125,114.695L5.037,114.834L4.95,114.977L4.91,115.043L4.87,115.112L4.83,115.181L4.792,115.25L4.754,115.319L4.717,115.388L4.681,115.457L4.645,115.525L4.611,115.594L4.577,115.662L4.545,115.73L4.513,115.798L4.482,115.866L4.453,115.934L4.424,116.002L4.396,116.07L4.369,116.138L4.342,116.205L4.317,116.273L4.293,116.34L4.27,116.408L4.247,116.476L4.226,116.543L4.205,116.611L4.186,116.678L4.167,116.746L4.15,116.814L4.133,116.882L4.117,116.95L4.102,117.018L4.089,117.086L4.076,117.154L4.064,117.223L4.053,117.292L4.043,117.361L4.034,117.43L4.026,117.5L4.019,117.57L4.014,117.641L4.009,117.712L4.005,117.783L4.002,117.855L4.001,117.927L4,118.001L4.001,118.078L4.002,118.156L4.004,118.233L4.008,118.31L4.012,118.387L4.018,118.464L4.024,118.54L4.031,118.616L4.039,118.691L4.048,118.767L4.058,118.842L4.069,118.916L4.081,118.991L4.094,119.064L4.107,119.138L4.122,119.211L4.137,119.284L4.154,119.357L4.171,119.429L4.189,119.501L4.208,119.573L4.227,119.644L4.248,119.715L4.269,119.785L4.292,119.855L4.315,119.925L4.339,119.994L4.363,120.063L4.389,120.132L4.415,120.2L4.443,120.268L4.471,120.335L4.499,120.402L4.529,120.468L4.559,120.535L4.591,120.6L4.622,120.665L4.655,120.73L4.689,120.795L4.723,120.859L4.758,120.922L4.794,120.985L4.83,121.048L4.867,121.11L4.905,121.171L4.944,121.233L4.983,121.293L5.023,121.353L5.064,121.413L5.106,121.472L5.148,121.531L5.191,121.589L5.234,121.646L5.279,121.703L5.324,121.76L5.369,121.816L5.415,121.871L5.462,121.926L5.51,121.98L5.558,122.034L5.607,122.087L5.656,122.139L5.707,122.191L5.757,122.243L5.809,122.293L5.86,122.344L5.913,122.393L5.966,122.442L6.02,122.49L6.074,122.538L6.129,122.585L6.184,122.631L6.24,122.676L6.297,122.721L6.354,122.766L6.411,122.809L6.469,122.852L6.528,122.894L6.587,122.936L6.647,122.977L6.707,123.017L6.767,123.056L6.829,123.095L6.89,123.133L6.952,123.17L7.015,123.206L7.078,123.242L7.141,123.277L7.205,123.311L7.27,123.345L7.334,123.378L7.4,123.41L7.466,123.441L7.532,123.471L7.598,123.501L7.665,123.529L7.732,123.557L7.8,123.585L7.868,123.611L7.937,123.637L8.006,123.661L8.075,123.685L8.145,123.708L8.215,123.731L8.285,123.752L8.356,123.773L8.427,123.792L8.499,123.811L8.571,123.829L8.643,123.846L8.716,123.863L8.789,123.878L8.862,123.893L8.936,123.906L9.009,123.919L9.084,123.931L9.158,123.942L9.233,123.952L9.308,123.961L9.384,123.969L9.46,123.976L9.536,123.982L9.613,123.988L9.69,123.992L9.767,123.996L9.844,123.998L9.922,123.999L10.006,124Z" style="fill:black;"/>
            <path d="M42,4L41.815,3.991L41.632,3.966L41.453,3.924L41.278,3.865L41.109,3.79L40.947,3.7L40.795,3.596L40.653,3.478L40.522,3.347L40.404,3.205L40.3,3.053L40.21,2.891L40.135,2.722L40.076,2.547L40.034,2.367L40.009,2.185L40,2L40.009,1.815L40.034,1.633L40.076,1.453L40.135,1.278L40.21,1.109L40.3,0.947L40.404,0.795L40.522,0.653L40.653,0.522L40.795,0.404L40.947,0.3L41.109,0.21L41.278,0.135L41.453,0.076L41.632,0.034L41.815,0.009L42,0L86,0L86.185,0.009L86.368,0.034L86.547,0.076L86.722,0.135L86.891,0.21L87.053,0.3L87.205,0.404L87.347,0.522L87.478,0.653L87.596,0.795L87.7,0.947L87.79,1.109L87.865,1.278L87.924,1.453L87.966,1.633L87.991,1.815L88,2L87.991,2.185L87.966,2.367L87.924,2.547L87.865,2.722L87.79,2.891L87.7,3.053L87.596,3.205L87.478,3.347L87.347,3.478L87.205,3.596L87.053,3.7L86.891,3.79L86.722,3.865L86.547,3.924L86.368,3.966L86.185,3.991L86,4L42,4Z" style="fill:black;"/>
        </g>
    </g>
</svg>
