<?xml version="1.0" standalone="no"?><!DOCTYPE svg PUBLIC "-//W3C//DTD SVG 1.1//EN" "http://www.w3.org/Graphics/SVG/1.1/DTD/svg11.dtd"><svg width="100%" height="100%" viewBox="0 0 200 200" version="1.1" xmlns="http://www.w3.org/2000/svg" xmlns:xlink="http://www.w3.org/1999/xlink" xml:space="preserve" style="fill-rule:evenodd;clip-rule:evenodd;stroke-linejoin:round;stroke-miterlimit:1.41421;"><g><path id="path1948" d="M98.821,0.002c-8.167,0.038 -15.966,0.733 -22.828,1.946c-20.216,3.567 -23.886,11.033 -23.886,24.802l0,18.185l47.772,0l0,6.061l-47.772,0l-17.928,0c-13.884,0 -26.041,8.335 -29.844,24.191c-4.386,18.174 -4.581,29.515 0,48.492c3.396,14.126 11.506,24.191 25.389,24.191l16.425,0l0,-21.8c0,-15.748 13.643,-29.64 29.844,-29.64l47.716,0c13.282,0 23.886,-10.923 23.886,-24.246l0,-45.434c0,-12.93 -10.922,-22.644 -23.886,-24.802c-8.207,-1.364 -16.722,-1.984 -24.888,-1.946ZM72.986,14.627c4.935,0 8.964,4.091 8.964,9.12c0,5.012 -4.029,9.065 -8.964,9.065c-4.952,0 -8.964,-4.053 -8.964,-9.065c0,-5.029 4.012,-9.12 8.964,-9.12Z" style="fill:url(#_Linear1);fill-rule:nonzero;"/><path id="path1950" d="M153.552,50.996l0,21.188c0,16.426 -13.943,30.252 -29.843,30.252l-47.716,0c-13.07,0 -23.886,11.173 -23.886,24.246l0,45.434c0,12.931 11.258,20.536 23.886,24.246c15.122,4.441 29.623,5.244 47.716,0c12.026,-3.478 23.886,-10.477 23.886,-24.246l0,-18.185l-47.716,0l0,-6.061l71.601,0c13.884,0 19.058,-9.673 23.886,-24.191c4.988,-14.946 4.776,-29.319 0,-48.492c-3.431,-13.805 -9.984,-24.191 -23.886,-24.191l-17.928,0ZM126.715,166.054c4.953,0 8.965,4.053 8.965,9.065c0,5.029 -4.012,9.12 -8.965,9.12c-4.934,0 -8.964,-4.091 -8.964,-9.12c0,-5.012 4.03,-9.065 8.964,-9.065Z" style="fill:url(#_Linear2);fill-rule:nonzero;"/></g><defs><linearGradient id="_Linear1" x1="0" y1="0" x2="1" y2="0" gradientUnits="userSpaceOnUse" gradientTransform="matrix(109.265,94.7999,-94.915,109.132,0.972162,1.3528e-07)"><stop offset="0%" style="stop-color:#5a9fd4;stop-opacity:1"/><stop offset="100%" style="stop-color:#306998;stop-opacity:1"/></linearGradient><linearGradient id="_Linear2" x1="0" y1="0" x2="1" y2="0" gradientUnits="userSpaceOnUse" gradientTransform="matrix(-39.0183,-55.6695,55.7371,-38.971,125.567,173.59)"><stop offset="0%" style="stop-color:#ffd43b;stop-opacity:1"/><stop offset="100%" style="stop-color:#ffe873;stop-opacity:1"/></linearGradient></defs></svg>